<?xml version="1.0" encoding="utf-8"?>
<!-- Generator: Adobe Illustrator 16.2.1, SVG Export Plug-In . SVG Version: 6.00 Build 0)  -->
<!DOCTYPE svg PUBLIC "-//W3C//DTD SVG 1.1 Tiny//EN" "http://www.w3.org/Graphics/SVG/1.1/DTD/svg11-tiny.dtd">
<svg version="1.1" baseProfile="tiny" xmlns="http://www.w3.org/2000/svg" xmlns:xlink="http://www.w3.org/1999/xlink" x="0px"
	 y="0px" width="400px" height="93px" viewBox="0 0 400 93" xml:space="preserve">
<g id="Guides">
</g>
<g id="logo">
	<g>
		<g>
			<circle cx="54.433" cy="24.979" r="0.473"/>
			<path d="M54.433,24.979"/>
		</g>
		<g>
			<path fill-rule="evenodd" d="M10.504,23.153l0.325,0.177l0.209-0.386l1.407,0.766c0.541,0.294,0.671,0.341,0.888,0.343
				c0.396-0.011,0.775-0.28,1.017-0.726c0.212-0.391,0.25-0.792,0.105-1.112c-0.105-0.237-0.293-0.394-0.804-0.671l-1.431-0.778
				l0.209-0.386l-0.325-0.176l-0.63,1.162l0.324,0.177l0.212-0.392l1.431,0.778c0.451,0.245,0.496,0.277,0.581,0.378
				c0.167,0.208,0.166,0.511,0,0.819c-0.147,0.271-0.352,0.417-0.591,0.427c-0.159,0.007-0.159,0.007-0.733-0.297l-1.413-0.769
				l0.212-0.392l-0.325-0.177L10.504,23.153z"/>
			<path fill-rule="evenodd" d="M12.822,19.086l0.289,0.23l0.272-0.343l2.078,1.654l-0.273,0.343l0.29,0.23l0.818-1.029
				l-0.278-0.222l-0.281,0.354l-0.846-0.674c-0.123-0.098-0.817-0.633-1.2-0.921c0.124,0.02,0.244,0.045,0.369,0.075
				c0.679,0.147,0.874,0.188,1.48,0.295l1.435,0.241l0.302-0.381l-2.366-1.885l0.277-0.348l-0.289-0.23l-0.822,1.034l0.278,0.222
				l0.285-0.359l0.771,0.614c0.416,0.323,0.79,0.612,1.114,0.853c-0.559-0.122-1.372-0.287-1.839-0.371l-1.216-0.197L12.822,19.086z
				"/>
			<polygon fill-rule="evenodd" points="15.733,15.646 15.987,15.915 16.295,15.623 18.122,17.551 17.814,17.844 18.068,18.112
				19.071,17.159 18.817,16.891 18.5,17.193 16.673,15.265 16.98,14.972 16.726,14.704 			"/>
			<path fill-rule="evenodd" d="M17.567,13.95l0.209,0.305l0.361-0.249l2.57,1.956l0.4-0.276l-0.833-3.15l0.35-0.241l-0.209-0.305
				l-1.032,0.71l0.209,0.305l0.305-0.209l0.347,1.232c0.026,0.098,0.151,0.511,0.199,0.677c0.101,0.305,0.178,0.526,0.22,0.672
				c-0.073-0.058-0.154-0.127-0.23-0.19c-0.438-0.372-0.57-0.48-0.854-0.701l-1.007-0.778l0.316-0.217l-0.209-0.305L17.567,13.95z"
				/>
			<polygon fill-rule="evenodd" points="23.957,11.125 23.598,10.37 21.381,11.428 21.54,11.762 21.935,11.573 23.077,13.973
				22.682,14.161 22.841,14.495 25.089,13.422 24.695,12.594 24.306,12.779 24.538,13.268 23.544,13.743 23.022,12.648
				24.128,12.12 23.966,11.78 22.861,12.308 22.404,11.35 23.368,10.89 23.568,11.31 			"/>
			<path fill-rule="evenodd" fill="#201B1A" d="M24.916,9.854l0.099,0.356l0.422-0.117l0.709,2.562l-0.422,0.117l0.099,0.356
				l1.286-0.356l-0.095-0.344l-0.389,0.108l-0.312-1.129l0.64-0.178l1.067,1.289l0.791-0.219l-0.099-0.357l-0.415,0.116l-0.91-1.006
				c0.469-0.279,0.62-0.606,0.496-1.055c-0.093-0.336-0.314-0.545-0.648-0.624c-0.266-0.062-0.464-0.034-1.137,0.152L24.916,9.854z
				 M26.211,11.044l-0.298-1.076l0.408-0.113c0.383-0.106,0.519-0.129,0.645-0.107c0.2,0.029,0.343,0.16,0.405,0.385
				c0.057,0.205,0.02,0.378-0.106,0.513c-0.11,0.116-0.21,0.165-0.612,0.276L26.211,11.044z"/>
			<path fill-rule="evenodd" d="M30.905,8.572l0.027,0.238c-0.243-0.193-0.477-0.256-0.81-0.218
				c-0.584,0.067-0.957,0.481-0.897,1.013c0.026,0.225,0.13,0.413,0.303,0.545c0.159,0.12,0.332,0.189,0.751,0.308
				c0.511,0.134,0.633,0.176,0.751,0.252c0.098,0.071,0.167,0.194,0.184,0.344c0.04,0.354-0.18,0.6-0.581,0.646
				c-0.272,0.031-0.521-0.044-0.678-0.212c-0.109-0.111-0.158-0.237-0.193-0.488l-0.428,0.049l0.125,1.109l0.428-0.049l-0.033-0.292
				c0.267,0.225,0.537,0.304,0.897,0.263c0.653-0.074,1.062-0.542,0.995-1.127c-0.029-0.252-0.142-0.466-0.316-0.598
				c-0.181-0.138-0.332-0.197-0.906-0.345C29.921,9.85,29.78,9.762,29.75,9.503C29.717,9.211,29.928,9,30.288,8.959
				c0.435-0.049,0.677,0.136,0.755,0.583l0.381-0.043l-0.111-0.974L30.905,8.572z"/>
			<polygon fill-rule="evenodd" points="32.618,8.477 32.615,8.847 33.039,8.851 33.016,11.509 32.591,11.505 32.588,11.875
				33.97,11.887 33.973,11.518 33.535,11.514 33.56,8.855 33.983,8.859 33.987,8.489 			"/>
			<polygon fill-rule="evenodd" points="34.998,8.512 34.883,9.381 35.304,9.437 35.37,8.934 36.014,9.02 35.667,11.654
				35.219,11.596 35.171,11.962 36.568,12.146 36.617,11.78 36.183,11.723 36.53,9.087 37.174,9.172 37.108,9.675 37.521,9.729
				37.637,8.86 			"/>
			<path fill-rule="evenodd" fill="#201B1A" d="M40.054,9.46l-1.894,2.633l-0.406-0.121l-0.105,0.355l1.194,0.354l0.097-0.328
				l-0.361-0.107l0.424-0.589l1.108,0.33l0.015,0.719l-0.38-0.113l-0.098,0.328l1.325,0.394l0.105-0.354l-0.433-0.129l-0.115-3.228
				L40.054,9.46z M40.108,11.613l-0.893-0.265l0.335-0.479c0.307-0.459,0.482-0.736,0.578-0.915
				c-0.021,0.265-0.028,0.406-0.035,1.033L40.108,11.613z M39.012,9.15l-0.181,0.611l0.583,0.173l0.181-0.611L39.012,9.15z
				 M41.02,9.807l-0.181,0.611l0.584,0.173l0.181-0.61L41.02,9.807z"/>
			<polygon fill-rule="evenodd" points="42.926,10.502 42.535,11.287 42.914,11.477 43.141,11.022 43.722,11.313 42.537,13.692
				42.133,13.49 41.968,13.821 43.229,14.451 43.394,14.12 43.002,13.924 44.188,11.546 44.769,11.836 44.543,12.29 44.917,12.477
				45.308,11.691 			"/>
			<path fill-rule="evenodd" d="M47.417,12.989l-0.235,0.285l0.337,0.279L46.5,14.79c-0.392,0.476-0.463,0.595-0.505,0.808
				c-0.065,0.391,0.126,0.815,0.517,1.138c0.343,0.283,0.729,0.397,1.07,0.315c0.252-0.058,0.442-0.213,0.812-0.662l1.037-1.258
				l0.337,0.279l0.235-0.285l-1.019-0.842l-0.235,0.286l0.343,0.284l-1.036,1.258c-0.326,0.396-0.366,0.435-0.481,0.499
				c-0.236,0.125-0.533,0.065-0.803-0.156c-0.237-0.196-0.342-0.425-0.307-0.662c0.024-0.158,0.024-0.158,0.433-0.665l1.023-1.242
				l0.343,0.283l0.235-0.285L47.417,12.989z"/>
			<polygon fill-rule="evenodd" points="49.269,18.756 51.282,17.034 51.571,17.373 51.853,17.133 50.942,16.064 50.661,16.305
				50.945,16.638 48.926,18.364 48.642,18.031 48.36,18.271 50,20.193 50.697,19.598 50.413,19.264 50.001,19.615 			"/>
			<path fill-rule="evenodd" d="M53.356,18.977l-0.318,0.188l0.229,0.39l-2.288,1.349l-0.222-0.377l-0.318,0.188l0.663,1.127
				l0.307-0.181l-0.229-0.39l1.062-0.625c0.771-0.471,0.842-0.513,1.225-0.754c-0.335,0.349-0.701,0.739-1.095,1.178l-0.927,1.016
				l0.229,0.39l1.368-0.281c0.553-0.112,0.834-0.174,1.561-0.356l-0.438,0.242l-0.265,0.156l-0.275,0.154
				c-0.133,0.07-0.233,0.13-0.269,0.151l-1.062,0.625l-0.229-0.39l-0.307,0.181l0.705,1.198l0.318-0.188l-0.222-0.378l2.288-1.349
				l0.222,0.378l0.318-0.188l-0.597-1.015l-1.326,0.297c-0.701,0.159-0.84,0.192-1.494,0.364c0.483-0.476,0.668-0.672,1.063-1.096
				l0.931-0.97L53.356,18.977z"/>
			<path fill-rule="evenodd" d="M57.132,27.617l-0.232,0.06c0.157-0.267,0.187-0.508,0.103-0.833
				c-0.147-0.571-0.609-0.883-1.126-0.749c-0.218,0.057-0.39,0.186-0.497,0.376c-0.097,0.174-0.142,0.355-0.199,0.788
				c-0.062,0.525-0.086,0.651-0.146,0.78c-0.057,0.106-0.169,0.192-0.315,0.23c-0.344,0.089-0.618-0.095-0.719-0.486
				c-0.068-0.266-0.029-0.523,0.116-0.702c0.095-0.124,0.212-0.189,0.456-0.26l-0.108-0.418l-1.08,0.279l0.108,0.418l0.285-0.074
				c-0.185,0.295-0.226,0.575-0.135,0.927c0.164,0.637,0.683,0.977,1.252,0.829c0.246-0.063,0.442-0.207,0.548-0.396
				c0.111-0.199,0.148-0.357,0.215-0.947c0.073-0.621,0.14-0.772,0.392-0.838c0.285-0.073,0.521,0.106,0.612,0.457
				c0.109,0.425-0.041,0.69-0.471,0.83l0.096,0.371l0.948-0.245L57.132,27.617z"/>
			<path fill-rule="evenodd" d="M57.761,31.67l-0.258,0.029c0.198-0.25,0.271-0.521,0.234-0.847
				c-0.098-0.858-0.854-1.33-1.928-1.208c-1.081,0.123-1.678,0.75-1.574,1.662c0.049,0.429,0.235,0.738,0.552,0.916
				c0.235,0.132,0.459,0.161,0.847,0.124l-0.048-0.429c-0.596,0.026-0.917-0.186-0.969-0.648c-0.065-0.571,0.412-0.978,1.255-1.074
				c0.884-0.101,1.425,0.175,1.493,0.775c0.051,0.449-0.161,0.708-0.652,0.812l0.048,0.422l1.048-0.12L57.761,31.67z"/>
			<polygon fill-rule="evenodd" points="57.771,33.563 57.401,33.547 57.383,33.972 54.73,33.855 54.749,33.431 54.38,33.415
				54.319,34.797 54.688,34.813 54.708,34.375 57.36,34.492 57.341,34.916 57.71,34.932 			"/>
			<polygon fill-rule="evenodd" points="56.374,38.492 57.197,38.63 57.603,36.204 57.239,36.143 57.166,36.575 54.548,36.136
				54.62,35.704 54.256,35.643 53.844,38.103 54.748,38.254 54.82,37.828 54.286,37.739 54.469,36.651 55.663,36.852 55.46,38.061
				55.832,38.123 56.034,36.914 57.08,37.089 56.904,38.143 56.445,38.066 			"/>
			<path fill-rule="evenodd" d="M56.848,40.009L56.5,39.885l-0.146,0.413l-2.502-0.887l0.146-0.414l-0.349-0.124l-0.439,1.24
				l0.335,0.119l0.151-0.426l1.019,0.361c0.148,0.053,0.979,0.333,1.435,0.48c-0.124,0.021-0.245,0.037-0.373,0.049
				c-0.69,0.082-0.888,0.107-1.495,0.204l-1.436,0.239l-0.162,0.458l2.851,1.011l-0.148,0.42l0.348,0.124l0.441-1.247l-0.335-0.119
				l-0.153,0.433l-0.929-0.329c-0.499-0.17-0.946-0.321-1.331-0.443c0.568-0.067,1.391-0.175,1.859-0.249l1.214-0.209L56.848,40.009
				z"/>
			<path fill-rule="evenodd" fill="#201B1A" d="M55.073,44.511l-0.314-0.193l-0.229,0.374l-2.263-1.39l0.229-0.374l-0.314-0.193
				l-0.555,0.906c-0.336,0.549-0.432,0.796-0.429,1.159c-0.006,0.574,0.308,1.097,0.862,1.437c0.501,0.308,1.03,0.375,1.492,0.185
				c0.366-0.153,0.575-0.362,0.947-0.97L55.073,44.511z M52,43.75l2.251,1.382l-0.133,0.216c-0.232,0.38-0.351,0.508-0.577,0.602
				c-0.348,0.148-0.781,0.083-1.201-0.174c-0.396-0.244-0.647-0.567-0.714-0.905c-0.055-0.291,0.009-0.525,0.255-0.928L52,43.75z"/>
			<path fill-rule="evenodd" fill="#201B1A" d="M51.678,49.504c0.594-0.672,0.475-1.602-0.299-2.287
				c-0.815-0.722-1.737-0.743-2.345-0.056c-0.604,0.683-0.475,1.602,0.319,2.306C50.147,50.17,51.074,50.187,51.678,49.504z
				 M51.391,49.25c-0.403,0.457-1.019,0.387-1.674-0.194c-0.656-0.582-0.799-1.184-0.396-1.641c0.408-0.461,1.014-0.392,1.69,0.208
				C51.651,48.19,51.794,48.793,51.391,49.25z"/>
			<path fill-rule="evenodd" fill="#201B1A" d="M48.285,52.672l-0.209-0.305l-0.361,0.249l-1.503-2.191l0.361-0.248l-0.209-0.305
				l-0.874,0.601c-0.53,0.365-0.718,0.552-0.863,0.884c-0.239,0.522-0.165,1.127,0.203,1.664c0.333,0.486,0.789,0.762,1.288,0.776
				c0.397,0.009,0.673-0.097,1.259-0.5L48.285,52.672z M45.787,50.725l1.496,2.18l-0.209,0.144
				c-0.367,0.252-0.527,0.321-0.772,0.314c-0.378-0.006-0.748-0.242-1.026-0.648c-0.263-0.384-0.362-0.782-0.285-1.117
				c0.068-0.288,0.221-0.477,0.61-0.744L45.787,50.725z"/>
			<path fill-rule="evenodd" fill="#201B1A" d="M43.059,55.84c0.822-0.357,1.106-1.25,0.694-2.199
				c-0.434-0.999-1.261-1.409-2.102-1.042c-0.834,0.363-1.106,1.25-0.684,2.224C41.391,55.797,42.224,56.203,43.059,55.84z
				 M42.906,55.488c-0.559,0.243-1.086-0.08-1.436-0.884c-0.349-0.805-0.224-1.411,0.334-1.655c0.565-0.246,1.084,0.074,1.444,0.903
				C43.589,54.638,43.464,55.245,42.906,55.488z"/>
			<path fill-rule="evenodd" d="M38.16,57.38l-0.065-0.252c0.275,0.162,0.553,0.196,0.87,0.114c0.835-0.216,1.197-1.031,0.927-2.079
				c-0.272-1.055-0.975-1.56-1.862-1.33c-0.417,0.108-0.698,0.336-0.83,0.674c-0.098,0.252-0.096,0.478-0.005,0.857l0.417-0.107
				c-0.109-0.588,0.056-0.935,0.506-1.051c0.556-0.144,1.024,0.273,1.237,1.095c0.222,0.862,0.024,1.437-0.559,1.588
				c-0.437,0.113-0.722-0.061-0.894-0.533l-0.411,0.106l0.264,1.022L38.16,57.38z"/>
			<polygon fill-rule="evenodd" points="33.816,57.051 33.881,57.885 36.33,57.691 36.301,57.323 35.864,57.357 35.657,54.708
				36.094,54.673 36.064,54.304 33.582,54.5 33.653,55.415 34.083,55.381 34.041,54.841 35.139,54.755 35.233,55.964 34.013,56.06
				34.042,56.436 35.263,56.34 35.346,57.398 34.282,57.482 34.245,57.018 			"/>
			<path fill-rule="evenodd" d="M32.392,57.905l0.036-0.368l-0.436-0.042l0.256-2.646l0.436,0.042l0.035-0.368l-1.308-0.126
				l-0.034,0.354l0.45,0.044l-0.104,1.077c-0.015,0.157-0.085,1.031-0.118,1.51c-0.051-0.115-0.095-0.229-0.138-0.351
				c-0.247-0.65-0.318-0.836-0.559-1.403l-0.58-1.336l-0.483-0.047l-0.291,3.015l-0.443-0.043l-0.036,0.368l1.315,0.127l0.034-0.354
				l-0.457-0.044l0.095-0.982c0.043-0.525,0.083-0.997,0.107-1.4c0.203,0.536,0.506,1.309,0.691,1.746l0.496,1.128L32.392,57.905z"
				/>
			<path fill-rule="evenodd" fill="#201B1A" d="M27.601,57.301l0.105-0.354l-0.42-0.125l0.755-2.548l0.42,0.124l0.104-0.354
				l-1.017-0.302c-0.616-0.183-0.88-0.211-1.229-0.114c-0.556,0.142-0.979,0.581-1.163,1.205c-0.167,0.565-0.096,1.094,0.208,1.491
				c0.242,0.315,0.498,0.462,1.181,0.665L27.601,57.301z M27.54,54.132l-0.75,2.535l-0.243-0.072
				c-0.427-0.126-0.581-0.208-0.73-0.402c-0.233-0.298-0.282-0.734-0.142-1.207c0.132-0.447,0.379-0.773,0.688-0.925
				c0.267-0.128,0.509-0.127,0.961,0.006L27.54,54.132z"/>
			<path fill-rule="evenodd" fill="#201B1A" d="M21.93,55.266c0.802,0.4,1.668,0.044,2.129-0.882
				c0.486-0.975,0.268-1.872-0.553-2.282c-0.814-0.406-1.668-0.044-2.141,0.906C20.891,53.958,21.115,54.858,21.93,55.266z
				 M22.101,54.922c-0.545-0.272-0.637-0.885-0.246-1.669c0.391-0.785,0.936-1.08,1.48-0.808c0.551,0.275,0.641,0.878,0.237,1.688
				C23.19,54.899,22.646,55.194,22.101,54.922z"/>
			<path fill-rule="evenodd" d="M16.239,51.194l0.173-0.195c0.019,0.319,0.146,0.569,0.392,0.787
				c0.646,0.572,1.523,0.417,2.24-0.394c0.721-0.816,0.746-1.681,0.06-2.29c-0.323-0.286-0.668-0.391-1.022-0.312
				c-0.263,0.06-0.449,0.188-0.712,0.476l0.322,0.286c0.426-0.419,0.805-0.476,1.153-0.167c0.431,0.381,0.347,1.002-0.215,1.639
				c-0.589,0.667-1.176,0.824-1.627,0.425c-0.338-0.3-0.354-0.634-0.058-1.04l-0.318-0.281l-0.698,0.79L16.239,51.194z"/>
			<path fill-rule="evenodd" d="M14.989,50.008l0.285-0.235l-0.278-0.338l1.235-1.02c0.476-0.392,0.568-0.495,0.65-0.696
				c0.139-0.371,0.031-0.824-0.291-1.215c-0.282-0.344-0.639-0.529-0.99-0.515c-0.259,0.009-0.474,0.125-0.923,0.495l-1.257,1.037
				l-0.278-0.338l-0.285,0.235l0.839,1.021l0.285-0.235l-0.283-0.344l1.257-1.037c0.396-0.327,0.443-0.356,0.568-0.398
				c0.255-0.077,0.536,0.037,0.758,0.307c0.196,0.238,0.255,0.482,0.175,0.708c-0.053,0.151-0.053,0.151-0.551,0.57l-1.241,1.023
				l-0.283-0.343l-0.285,0.235L14.989,50.008z"/>
			<path fill-rule="evenodd" fill="#201B1A" d="M12.095,46.213l0.325-0.176l-0.208-0.385l2.333-1.269l0.209,0.386l0.325-0.177
				l-0.637-1.174l-0.312,0.17l0.192,0.355l-1.028,0.559l-0.316-0.584l1.015-1.331L13.6,41.864l-0.325,0.177l0.206,0.379
				l-0.774,1.114c-0.377-0.395-0.729-0.469-1.138-0.246c-0.307,0.167-0.46,0.429-0.461,0.772c0,0.273,0.07,0.46,0.403,1.075
				L12.095,46.213z M12.962,44.682l-0.98,0.533l-0.202-0.374c-0.189-0.349-0.243-0.476-0.25-0.604
				c-0.016-0.202,0.08-0.37,0.284-0.481c0.187-0.102,0.364-0.104,0.523-0.012c0.138,0.081,0.208,0.168,0.407,0.535L12.962,44.682z"
				/>
			<path fill-rule="evenodd" fill="#201B1A" d="M9.713,41.097l3.239,0.042l0.135,0.403l0.35-0.118l-0.395-1.183l-0.324,0.109
				l0.119,0.357l-0.725-0.01L11.745,39.6l0.58-0.425l0.126,0.376l0.324-0.108l-0.438-1.312l-0.351,0.118l0.144,0.429l-2.576,1.946
				L9.713,41.097z M11.442,39.816l0.295,0.884h-0.584c-0.552,0.012-0.878,0.027-1.079,0.051c0.229-0.134,0.348-0.21,0.864-0.564
				L11.442,39.816z"/>
			<path fill-rule="evenodd" d="M8.867,37.934l0.366-0.048l-0.057-0.435l2.632-0.347l0.058,0.435l0.366-0.048l-0.171-1.305
				l-0.353,0.047l0.059,0.448l-1.072,0.141c-0.156,0.021-1.022,0.148-1.496,0.225c0.1-0.076,0.202-0.144,0.31-0.213
				c0.577-0.387,0.742-0.499,1.239-0.861l1.17-0.866l-0.063-0.482L8.857,35.02L8.8,34.578l-0.366,0.048l0.172,1.311l0.353-0.047
				l-0.06-0.455l0.977-0.128c0.521-0.076,0.989-0.144,1.388-0.21c-0.476,0.318-1.16,0.788-1.544,1.067l-0.987,0.738L8.867,37.934z"
				/>
			<path fill-rule="evenodd" fill="#201B1A" d="M8.391,33.185l0.369,0.022l0.027-0.438l2.65,0.163l-0.027,0.438l0.369,0.022
				l0.065-1.06c0.039-0.643,0.007-0.906-0.165-1.225c-0.264-0.51-0.786-0.824-1.435-0.863c-0.587-0.036-1.086,0.153-1.404,0.538
				c-0.252,0.307-0.338,0.59-0.382,1.302L8.391,33.185z M11.461,32.412L8.825,32.25l0.016-0.253
				c0.027-0.444,0.072-0.613,0.228-0.803c0.237-0.294,0.65-0.44,1.143-0.41c0.464,0.028,0.838,0.195,1.055,0.463
				c0.185,0.231,0.239,0.468,0.21,0.939L11.461,32.412z"/>
			<path fill-rule="evenodd" fill="#201B1A" d="M9.078,27.327c-0.209,0.873,0.332,1.637,1.336,1.879
				c1.059,0.254,1.883-0.16,2.097-1.053c0.213-0.886-0.332-1.637-1.363-1.885S9.291,26.441,9.078,27.327z M9.451,27.417
				c0.142-0.593,0.717-0.821,1.569-0.616c0.853,0.205,1.261,0.67,1.119,1.263c-0.144,0.6-0.711,0.822-1.589,0.611
				C9.717,28.475,9.309,28.01,9.451,27.417z"/>
		</g>
		<g>
			<circle cx="11.638" cy="24.979" r="0.473"/>
			<path d="M11.639,24.979"/>
		</g>
		<g>
			<circle cx="20.346" cy="52.232" r="0.473"/>
			<path d="M20.347,52.231"/>
		</g>
		<g>
			<circle cx="47.964" cy="50.54" r="0.473"/>
			<path d="M47.964,50.54"/>
		</g>
		<g>
			<path d="M26.456,39.583c-0.132-1.118-0.228-2.285-0.286-3.489c-0.814-0.899-1.576-1.797-2.276-2.686
				c-1.289,1.697-2.337,3.353-3.092,4.893C22.427,38.861,24.341,39.293,26.456,39.583z M24.074,33.172
				c0.638,0.83,1.333,1.668,2.077,2.508c-0.034-0.818-0.051-1.651-0.051-2.499c0-0.853,0.017-1.691,0.051-2.515
				C25.406,31.506,24.712,32.344,24.074,33.172z M23.898,32.941c0.7-0.887,1.459-1.783,2.271-2.68
				c0.059-1.208,0.155-2.377,0.287-3.499c-2.112,0.289-4.023,0.718-5.647,1.273C21.562,29.581,22.609,31.24,23.898,32.941z
				 M29.977,26.424c-1.115,0.066-2.193,0.167-3.226,0.3c-0.135,1.035-0.236,2.115-0.303,3.232c0.552-0.6,1.128-1.201,1.725-1.798
				C28.771,27.558,29.374,26.979,29.977,26.424z M39.937,29.97c-0.066-1.12-0.167-2.205-0.301-3.242
				c-1.038-0.136-2.122-0.237-3.243-0.304c0.605,0.557,1.21,1.137,1.812,1.74C38.804,28.764,39.382,29.367,39.937,29.97z
				 M29.971,39.924c-0.599-0.552-1.199-1.127-1.795-1.724c-0.598-0.598-1.174-1.199-1.728-1.801c0.066,1.114,0.167,2.192,0.3,3.224
				C27.781,39.757,28.858,39.857,29.971,39.924z M35.685,26.131c-0.836-0.744-1.672-1.438-2.498-2.075
				c-0.828,0.637-1.664,1.331-2.501,2.075c0.818-0.035,1.653-0.052,2.5-0.052C34.033,26.079,34.867,26.097,35.685,26.131z
				 M45.738,27.678c1.442-3.108,1.644-5.717,0.15-7.211c-0.732-0.733-1.733-1.059-2.93-1.03c-0.019,0.213-0.109,0.422-0.272,0.586
				c-0.369,0.37-0.968,0.369-1.337,0c-0.093-0.093-0.162-0.199-0.208-0.313c-0.773,0.199-1.599,0.503-2.462,0.905
				c0.532,1.705,0.938,3.686,1.208,5.857C42.056,26.742,44.035,27.147,45.738,27.678z M30.807,35.124
				c0,0.567,0.953,1.153,2.063,1.256v-2.512C31.756,33.972,30.807,34.557,30.807,35.124z M33.185,42.293
				c0.827-0.637,1.662-1.329,2.498-2.072c-0.817,0.034-1.65,0.052-2.497,0.052c-0.846,0-1.679-0.017-2.496-0.051
				C31.524,40.964,32.359,41.656,33.185,42.293z M35.829,32.172c0-0.638-1.084-1.298-2.337-1.399v2.799
				C34.748,33.469,35.829,32.81,35.829,32.172z M39.938,36.382c-0.556,0.605-1.136,1.209-1.737,1.811
				c-0.598,0.599-1.199,1.176-1.8,1.729c1.118-0.066,2.199-0.168,3.235-0.303C39.77,38.584,39.871,37.501,39.938,36.382z
				 M35.562,35.124c0-0.569-0.957-1.157-2.071-1.257v2.513C34.608,36.279,35.562,35.692,35.562,35.124z M38.016,38.018
				c0.679-0.68,1.328-1.363,1.944-2.047c0.046-0.911,0.07-1.844,0.07-2.794c0-0.953-0.024-1.887-0.071-2.799
				c-0.614-0.682-1.261-1.363-1.938-2.04c-0.675-0.675-1.354-1.322-2.034-1.935c-0.915-0.047-1.853-0.071-2.808-0.071
				c-0.952,0-1.886,0.024-2.797,0.071c-0.681,0.614-1.361,1.261-2.037,1.938c-0.67,0.671-1.311,1.346-1.92,2.021
				c-0.047,0.917-0.071,1.857-0.071,2.815c0,0.957,0.024,1.896,0.071,2.812c0.611,0.678,1.254,1.355,1.926,2.027
				c0.674,0.675,1.352,1.319,2.031,1.932c0.911,0.047,1.845,0.071,2.797,0.071c0.956,0,1.895-0.024,2.81-0.071
				C36.667,39.334,37.344,38.69,38.016,38.018z M33.733,39.105c0,0-0.059-0.045-0.061-0.114c-0.001-0.055,0.051-0.12,0.051-0.12
				c0.893-0.15,1.598-0.63,1.598-1.097c0-0.506-0.842-1.029-1.831-1.128v2.912c0,0.16-0.139,0.29-0.311,0.29s-0.311-0.13-0.311-0.29
				v-2.911c-0.985,0.1-1.823,0.622-1.823,1.127c0,0.466,0.705,0.946,1.599,1.097c0,0,0.053,0.065,0.051,0.12
				c-0.002,0.069-0.061,0.114-0.061,0.114c-1.229-0.131-2.15-0.677-2.15-1.331c0-0.554,0.662-1.031,1.611-1.243
				c-1.12-0.222-1.913-0.769-1.913-1.408c0-0.619,0.742-1.15,1.805-1.384c-1.252-0.244-2.141-0.854-2.141-1.567
				c0-0.687,0.823-1.277,2.002-1.538c-1.391-0.272-2.375-0.949-2.375-1.74c0-0.656,0.676-1.233,1.697-1.566
				c0.088-0.149,0.33-0.286,0.63-0.339c0.401-0.071,0.755,0.034,0.791,0.234s-0.262,0.42-0.663,0.491
				c-0.2,0.035-0.388,0.026-0.531-0.016c-0.69,0.305-1.155,0.754-1.155,1.195c0,0.714,1.221,1.453,2.625,1.557v-3.758
				c0-0.161,0.139-0.291,0.311-0.291s0.311,0.128,0.311,0.291v3.758c1.411-0.104,2.633-0.843,2.633-1.558
				c0-0.44-0.464-0.89-1.154-1.195c-0.143,0.042-0.332,0.051-0.532,0.016c-0.401-0.071-0.698-0.291-0.663-0.491
				s0.39-0.306,0.791-0.234c0.3,0.053,0.542,0.189,0.63,0.339c1.021,0.333,1.697,0.91,1.697,1.566c0,0.792-0.984,1.468-2.375,1.74
				c1.18,0.261,2.002,0.851,2.002,1.538c0,0.713-0.888,1.323-2.141,1.567c1.062,0.234,1.805,0.766,1.805,1.384
				c0,0.639-0.792,1.186-1.913,1.408c0.949,0.212,1.611,0.689,1.611,1.243C35.883,38.428,34.962,38.975,33.733,39.105z
				 M30.54,32.172c0,0.637,1.08,1.296,2.33,1.399v-2.798C31.617,30.878,30.54,31.536,30.54,32.172z M28.198,45.946
				c1.176,3.222,2.877,5.211,4.99,5.211c0.979,0,1.869-0.427,2.661-1.205c-0.083-0.141-0.131-0.305-0.131-0.48
				c0-0.523,0.423-0.946,0.945-0.946c0.096,0,0.188,0.014,0.275,0.041c0.462-0.738,0.878-1.618,1.243-2.615
				c-1.581-0.831-3.269-1.946-4.996-3.293C31.462,44.002,29.777,45.116,28.198,45.946z M36.095,40.202
				c-0.895,0.812-1.79,1.572-2.674,2.271c1.698,1.29,3.355,2.34,4.896,3.095c0.558-1.625,0.989-3.54,1.278-5.654
				C38.475,40.046,37.304,40.143,36.095,40.202z M20.625,38.673c-1.443,3.107-1.644,5.713-0.151,7.208
				c0.703,0.704,1.653,1.032,2.786,1.033c0.046-0.108,0.113-0.209,0.201-0.297c0.369-0.369,0.968-0.369,1.337,0
				c0.032,0.033,0.062,0.068,0.089,0.104c0.872-0.192,1.814-0.527,2.808-0.988c-0.529-1.704-0.934-3.683-1.202-5.852
				C24.316,39.611,22.332,39.206,20.625,38.673z M30.276,40.203c-1.204-0.059-2.37-0.155-3.488-0.286
				c0.289,2.109,0.717,4.02,1.272,5.642c1.54-0.753,3.193-1.799,4.889-3.086C32.065,41.773,31.171,41.015,30.276,40.203z
				 M39.891,39.878c-0.27,2.174-0.675,4.158-1.206,5.865c3.105,1.443,5.712,1.645,7.205,0.15c0.687-0.687,1.016-1.61,1.03-2.709
				c-0.206-0.023-0.406-0.113-0.564-0.271c-0.369-0.37-0.369-0.969,0-1.338c0.101-0.101,0.218-0.174,0.343-0.22
				c-0.196-0.836-0.521-1.736-0.959-2.682C44.036,39.203,42.059,39.608,39.891,39.878z M33.19,13.259
				c-10.993,0-19.904,8.918-19.904,19.92c0,11.001,8.911,19.92,19.904,19.92s19.905-8.918,19.905-19.92
				C53.096,22.178,44.184,13.259,33.19,13.259z M47.261,41.327c0.158,0.041,0.308,0.123,0.432,0.247
				c0.369,0.369,0.369,0.969,0,1.338c-0.03,0.03-0.062,0.058-0.095,0.083c0.15,1.473-0.167,2.698-1.036,3.568
				c-1.644,1.645-4.553,1.314-8.006-0.42c-0.34,1.024-0.727,1.941-1.158,2.731c0.132,0.163,0.211,0.371,0.211,0.597
				c0,0.523-0.423,0.947-0.946,0.947c-0.094,0-0.185-0.014-0.271-0.04c-0.922,1.108-1.995,1.727-3.202,1.727
				c-2.325,0-4.15-2.294-5.366-5.967c-0.964,0.485-1.887,0.86-2.75,1.113c0.009,0.253-0.083,0.51-0.276,0.704
				c-0.369,0.37-0.968,0.37-1.337,0c-0.102-0.101-0.175-0.22-0.22-0.346c-1.408,0.117-2.581-0.208-3.422-1.049
				c-1.643-1.644-1.315-4.556,0.417-8.012c-0.965-0.32-1.834-0.682-2.592-1.084c-0.173,0.203-0.432,0.332-0.719,0.332
				c-0.522,0-0.945-0.424-0.945-0.946c0-0.146,0.033-0.285,0.092-0.408c-1.151-0.936-1.795-2.028-1.795-3.261
				c0-2.326,2.291-4.153,5.958-5.371c-0.442-0.881-0.793-1.727-1.042-2.525c-0.268,0.022-0.543-0.068-0.748-0.274
				c-0.369-0.37-0.369-0.969,0-1.338c0.101-0.101,0.219-0.175,0.345-0.221c-0.171-1.508,0.142-2.762,1.027-3.647
				c1.643-1.644,4.553-1.316,8.006,0.418c0.311-0.938,0.661-1.786,1.049-2.528c-0.149-0.168-0.241-0.389-0.241-0.631
				c0-0.523,0.423-0.947,0.946-0.947c0.094,0,0.186,0.014,0.271,0.04c0.952-1.216,2.071-1.897,3.338-1.897
				c2.323,0,4.147,2.29,5.365,5.956c0.887-0.445,1.737-0.799,2.541-1.049c0.036-0.176,0.122-0.344,0.258-0.48
				c0.369-0.37,0.968-0.369,1.337,0c0.031,0.031,0.06,0.064,0.085,0.099c1.57-0.207,2.873,0.098,3.786,1.011
				c1.644,1.645,1.314,4.557-0.42,8.013c1.006,0.334,1.908,0.714,2.688,1.137c0.142-0.084,0.307-0.133,0.483-0.133
				c0.522,0,0.945,0.424,0.945,0.946c0,0.039-0.002,0.078-0.007,0.115c1.184,0.945,1.848,2.052,1.848,3.304
				c0,2.325-2.29,4.151-5.957,5.368C46.629,39.521,47.007,40.454,47.261,41.327z M42.477,33.409
				c-0.697,0.884-1.455,1.777-2.264,2.671c-0.059,1.209-0.155,2.379-0.286,3.501c2.108-0.29,4.017-0.719,5.638-1.275
				C44.811,36.764,43.764,35.107,42.477,33.409z M49.914,30.485c-0.164,0.136-0.374,0.218-0.604,0.218
				c-0.522,0-0.945-0.424-0.945-0.946c0-0.142,0.031-0.277,0.087-0.398c-0.715-0.436-1.557-0.83-2.506-1.178
				c-0.83,1.581-1.943,3.269-3.287,4.995c1.344,1.726,2.458,3.413,3.288,4.994c3.216-1.177,5.2-2.879,5.2-4.992
				C51.147,32.187,50.71,31.285,49.914,30.485z M38.187,20.4c-1.175-3.215-2.874-5.199-4.984-5.199
				c-1.044,0-1.989,0.486-2.821,1.366c0.089,0.144,0.14,0.313,0.14,0.494c0,0.523-0.423,0.947-0.945,0.947
				c-0.083,0-0.164-0.01-0.24-0.031c-0.419,0.701-0.798,1.52-1.135,2.438c1.577,0.829,3.26,1.939,4.982,3.281
				C34.913,22.349,36.603,21.231,38.187,20.4z M36.091,26.149c1.21,0.059,2.383,0.155,3.506,0.288
				c-0.289-2.115-0.718-4.029-1.274-5.653c-1.544,0.754-3.205,1.804-4.906,3.096C34.302,24.579,35.196,25.337,36.091,26.149z
				 M39.923,26.767c0.132,1.123,0.229,2.294,0.288,3.504c0.81,0.894,1.566,1.786,2.264,2.669c1.288-1.698,2.335-3.354,3.088-4.895
				C43.941,27.487,42.032,27.057,39.923,26.767z M42.296,33.174c-0.635-0.826-1.326-1.66-2.067-2.495
				c0.034,0.819,0.052,1.654,0.052,2.503c0,0.843-0.017,1.672-0.05,2.485C40.971,34.832,41.662,33.998,42.296,33.174z
				 M26.491,26.473c0.27-2.174,0.675-4.156,1.206-5.862c-3.104-1.444-5.709-1.646-7.203-0.151c-0.748,0.748-1.071,1.775-1.028,3.004
				c0.114,0.046,0.222,0.116,0.314,0.208c0.369,0.37,0.369,0.969,0,1.338l-0.078,0.07c0.198,0.812,0.513,1.685,0.937,2.599
				C22.344,27.148,24.322,26.743,26.491,26.473z M30.277,26.15c0.896-0.813,1.791-1.573,2.676-2.272
				c-1.694-1.288-3.346-2.335-4.884-3.09c-0.559,1.624-0.989,3.536-1.28,5.648C27.907,26.305,29.073,26.209,30.277,26.15z
				 M23.713,33.178c-1.347-1.729-2.462-3.42-3.292-5.004c-3.217,1.175-5.202,2.876-5.202,4.99c0,1.04,0.48,1.98,1.35,2.809
				c0.109-0.045,0.229-0.069,0.355-0.069c0.522,0,0.945,0.424,0.945,0.946l-0.005,0.105c0.728,0.451,1.591,0.857,2.566,1.214
				C21.259,36.589,22.371,34.903,23.713,33.178z"/>
		</g>
		<g>
			<path fill-rule="evenodd" d="M162.21,14.866h-0.78v3.49c0,1.052-0.445,2.302-1.868,2.302c-1.077,0-1.497-0.768-1.497-1.955
				v-3.836h-0.78v4.034c0,1.386,0.595,2.426,2.153,2.426c1.312,0,1.782-0.705,2.042-1.274h0.024v1.126h0.756
				c-0.05-0.507-0.05-1.002-0.05-1.485V14.866z"/>
			<path fill-rule="evenodd" d="M164.539,21.177h0.779v-3.489c0-1.052,0.445-2.302,1.869-2.302c1.076,0,1.497,0.767,1.497,1.956
				v3.836h0.78v-4.034c0-1.386-0.595-2.425-2.154-2.425c-1.312,0-1.782,0.706-2.042,1.274h-0.024v-1.126h-0.755
				c0.05,0.507,0.05,1.002,0.05,1.485V21.177z"/>
			<path fill-rule="evenodd" d="M171.418,21.177h0.779v-6.311h-0.779V21.177z M172.197,12.144h-0.779v1.039h0.779V12.144z"/>
			<polygon fill-rule="evenodd" points="178.568,14.866 177.752,14.866 175.921,20.323 175.896,20.323 174.151,14.866
				173.297,14.866 175.438,21.177 176.354,21.177 			"/>
			<path fill-rule="evenodd" d="M183.888,20.187c-0.372,0.235-1.2,0.471-1.77,0.471c-1.362,0-2.079-1.077-2.079-2.413h4.318v-0.396
				c0-1.696-0.729-3.131-2.512-3.131c-1.597,0-2.66,1.374-2.66,3.304c0,1.893,0.779,3.304,2.87,3.304
				c0.582,0,1.287-0.124,1.832-0.347V20.187z M180.039,17.576c0-1.04,0.705-2.191,1.855-2.191c1.164,0,1.609,1.089,1.609,2.191
				H180.039z"/>
			<path fill-rule="evenodd" d="M185.843,21.177h0.78v-3.118c0-1.139,0.334-2.524,1.571-2.524c0.198,0,0.408,0.024,0.569,0.074
				v-0.817c-0.137-0.037-0.359-0.074-0.545-0.074c-0.805,0-1.336,0.656-1.621,1.361h-0.024v-1.212h-0.78
				c0.05,0.458,0.05,0.718,0.05,1.411V21.177z"/>
			<path fill-rule="evenodd" d="M189.4,21.028c0.557,0.223,1.163,0.297,1.77,0.297c0.953,0,2.202-0.458,2.202-1.794
				c0-2.067-3.106-1.918-3.106-3.094c0-0.805,0.558-1.052,1.362-1.052c0.433,0,0.989,0.112,1.397,0.297l0.074-0.681
				c-0.557-0.211-1.225-0.285-1.559-0.285c-1.039,0-2.055,0.47-2.055,1.72c0,1.831,3.032,1.596,3.032,3.094
				c0,0.718-0.655,1.126-1.397,1.126c-0.607,0-1.177-0.161-1.646-0.396L189.4,21.028z"/>
			<path fill-rule="evenodd" d="M194.768,21.177h0.778v-6.311h-0.778V21.177z M195.546,12.144h-0.778v1.039h0.778V12.144z"/>
			<path fill-rule="evenodd" d="M200.235,14.866H198.8v-1.794l-0.78,0.272v1.522h-1.237v0.668h1.237v3.688
				c0,1.15,0.05,2.104,1.436,2.104c0.385,0,0.768-0.099,0.953-0.173l-0.049-0.644c-0.224,0.086-0.421,0.148-0.719,0.148
				c-0.631,0-0.841-0.471-0.841-1.04v-4.083h1.436V14.866z"/>
			<path fill-rule="evenodd" d="M204.337,13.814h0.928v-1.04h-0.928V13.814z M202.221,13.814h0.928v-1.04h-0.928V13.814z
				 M205.252,21.177h0.768c-0.062-0.433-0.062-0.816-0.062-1.324v-2.784c0-1.646-0.656-2.351-2.216-2.351
				c-0.557,0-1.373,0.198-1.855,0.433v0.755c0.581-0.371,1.2-0.52,1.855-0.52c1.053,0,1.436,0.545,1.436,1.622v0.321h-0.148
				c-1.633,0-3.886,0.099-3.886,2.215c0,0.569,0.284,1.782,2.079,1.782c0.779,0,1.658-0.408,2.005-1.163h0.024V21.177z
				 M205.178,18.38c0,0.681-0.037,2.277-1.869,2.277c-0.717,0-1.311-0.31-1.311-1.139c0-1.386,1.608-1.522,2.957-1.522h0.223V18.38z
				"/>
			<path fill-rule="evenodd" d="M210.537,14.866h-1.436v-1.794l-0.78,0.272v1.522h-1.237v0.668h1.237v3.688
				c0,1.15,0.05,2.104,1.436,2.104c0.384,0,0.768-0.099,0.954-0.173l-0.05-0.644c-0.224,0.086-0.421,0.148-0.719,0.148
				c-0.631,0-0.841-0.471-0.841-1.04v-4.083h1.436V14.866z"/>
		</g>
		<g>
			<path fill-rule="evenodd" d="M102.723,14.866h-0.779v3.49c0,1.052-0.446,2.302-1.869,2.302c-1.076,0-1.497-0.768-1.497-1.955
				v-3.836h-0.78v4.034c0,1.386,0.594,2.426,2.153,2.426c1.312,0,1.782-0.705,2.042-1.274h0.025v1.126h0.755
				c-0.05-0.507-0.05-1.002-0.05-1.485V14.866z"/>
			<path fill-rule="evenodd" d="M105.052,21.177h0.779v-3.489c0-1.052,0.445-2.302,1.869-2.302c1.076,0,1.497,0.767,1.497,1.956
				v3.836h0.78v-4.034c0-1.386-0.595-2.425-2.154-2.425c-1.312,0-1.782,0.706-2.042,1.274h-0.025v-1.126h-0.755
				c0.05,0.507,0.05,1.002,0.05,1.485V21.177z"/>
			<path fill-rule="evenodd" d="M111.931,21.177h0.78v-6.311h-0.78V21.177z M112.711,12.144h-0.78v1.039h0.78V12.144z"/>
			<polygon fill-rule="evenodd" points="119.082,14.866 118.266,14.866 116.434,20.323 116.409,20.323 114.665,14.866
				113.81,14.866 115.951,21.177 116.867,21.177 			"/>
			<path fill-rule="evenodd" d="M124.4,20.187c-0.371,0.235-1.2,0.471-1.77,0.471c-1.361,0-2.079-1.077-2.079-2.413h4.319v-0.396
				c0-1.696-0.73-3.131-2.513-3.131c-1.596,0-2.66,1.374-2.66,3.304c0,1.893,0.78,3.304,2.871,3.304
				c0.582,0,1.287-0.124,1.832-0.347V20.187z M120.552,17.576c0-1.04,0.705-2.191,1.856-2.191c1.164,0,1.608,1.089,1.608,2.191
				H120.552z"/>
			<path fill-rule="evenodd" d="M126.356,21.177h0.779v-3.118c0-1.139,0.334-2.524,1.571-2.524c0.198,0,0.409,0.024,0.569,0.074
				v-0.817c-0.136-0.037-0.358-0.074-0.544-0.074c-0.805,0-1.337,0.656-1.621,1.361h-0.025v-1.212h-0.779
				c0.05,0.458,0.05,0.718,0.05,1.411V21.177z"/>
			<path fill-rule="evenodd" d="M129.913,21.028c0.557,0.223,1.163,0.297,1.77,0.297c0.953,0,2.202-0.458,2.202-1.794
				c0-2.067-3.105-1.918-3.105-3.094c0-0.805,0.557-1.052,1.361-1.052c0.433,0,0.99,0.112,1.398,0.297l0.074-0.681
				c-0.557-0.211-1.226-0.285-1.56-0.285c-1.039,0-2.054,0.47-2.054,1.72c0,1.831,3.031,1.596,3.031,3.094
				c0,0.718-0.655,1.126-1.397,1.126c-0.607,0-1.177-0.161-1.646-0.396L129.913,21.028z"/>
			<path fill-rule="evenodd" d="M135.28,21.177h0.779v-6.311h-0.779V21.177z M136.06,12.144h-0.779v1.039h0.779V12.144z"/>
			<path fill-rule="evenodd" d="M140.748,14.866h-1.436v-1.794l-0.779,0.272v1.522h-1.238v0.668h1.238v3.688
				c0,1.15,0.049,2.104,1.436,2.104c0.384,0,0.768-0.099,0.953-0.173l-0.05-0.644c-0.224,0.086-0.421,0.148-0.718,0.148
				c-0.631,0-0.842-0.471-0.842-1.04v-4.083h1.436V14.866z"/>
		</g>
		<g>
			<path fill-rule="evenodd" d="M181.626,26.49h-6.91v13.004c0,3.406-1.083,8.825-6.085,8.825c-4.435,0-4.486-4.387-4.486-7.638
				V26.49h-6.909v16.771c0,5.985,2.732,10.424,9.024,10.424c3.608,0,6.6-1.651,8.713-4.232h0.104v3.613h6.55V26.49z"/>
			<g>
				<path fill-rule="evenodd" d="M210.505,26.457h-3.284v14.71c0,4.433-1.875,9.701-7.87,9.701c-4.535,0-6.308-3.233-6.308-8.241
					v-16.17h-3.283v17.004c0,5.842,2.502,10.224,9.069,10.224c5.525,0,7.506-2.973,8.601-5.373h0.104v4.747h3.18
					c-0.209-2.139-0.209-4.225-0.209-6.259V26.457z"/>
			</g>
			<rect x="217.898" y="13.125" fill-rule="evenodd" width="3.25" height="39.941"/>
			<g>
				<path fill-rule="evenodd" d="M263.51,53.066V34.794c0-5.154-3.018-8.903-8.375-8.903c-4.162,0-7.283,2.5-8.479,5.623h-0.104
					c-0.832-4.634-4.682-5.623-7.022-5.623c-5.67,0-7.23,3.333-8.271,5.154l-0.104-0.052v-4.477h-3.173
					c0.208,2.134,0.208,4.216,0.208,6.247v20.303h3.277V38.386c0-6.611,3.538-9.683,7.127-9.683c4.214,0,5.618,2.967,5.618,6.715
					v17.648h3.277V38.386c0-6.611,3.538-9.683,7.127-9.683c4.213,0,5.618,2.967,5.618,6.715v17.648H263.51z"/>
			</g>
		</g>
		<g>
			<path fill-rule="evenodd" d="M80.006,14.859h-0.779v3.49c0,1.052-0.445,2.302-1.868,2.302c-1.076,0-1.497-0.768-1.497-1.955
				v-3.836h-0.779v4.034c0,1.386,0.594,2.425,2.152,2.425c1.312,0,1.782-0.705,2.042-1.274h0.025v1.126h0.755
				c-0.05-0.507-0.05-1.002-0.05-1.485V14.859z"/>
			<rect x="81.959" y="11.889" fill-rule="evenodd" width="0.78" height="9.281"/>
			<path fill-rule="evenodd" d="M93.105,21.17v-4.343c0-1.225-0.717-2.116-1.992-2.116c-0.99,0-1.732,0.594-2.017,1.336h-0.025
				c-0.198-1.102-1.114-1.336-1.67-1.336c-1.349,0-1.72,0.792-1.967,1.225l-0.025-0.012v-1.064h-0.755
				c0.049,0.507,0.049,1.002,0.049,1.485v4.826h0.78v-3.489c0-1.572,0.841-2.302,1.695-2.302c1.002,0,1.336,0.705,1.336,1.596v4.195
				h0.779v-3.489c0-1.572,0.841-2.302,1.695-2.302c1.002,0,1.336,0.705,1.336,1.596v4.195H93.105z"/>
			<path fill-rule="evenodd" d="M146.769,14.859h-0.816l-1.818,5.259h-0.025l0.013,0.013l-1.769-5.272h-0.854l2.24,6.385
				l-0.162,0.557c-0.247,0.817-0.47,1.374-1.138,1.374c-0.284,0-0.433-0.05-0.581-0.099l-0.074,0.668
				c0.26,0.062,0.557,0.099,0.841,0.099c0.879,0,1.323-0.866,1.621-1.732L146.769,14.859z"/>
		</g>
	</g>
</g>
</svg>
